<?xml version="1.0" encoding="UTF-8"?><svg id="_레이어_2" xmlns="http://www.w3.org/2000/svg" viewBox="0 0 142.81 35.71"><defs><style>.cls-1{fill:#00a26c;}.cls-2{fill:#fff;}.cls-3{fill:#006cba;}.cls-4{fill:#ee7500;}</style></defs><g id="__덉씠_1"><path class="cls-2" d="M104.88,24.94v-3.64h-3.76v4.42c0,.95.37,1.67,1.09,2.13.71.45,1.6.68,2.67.68h11.72v-3.19h-11.2c-.47,0-.53-.21-.53-.4M116.48,6.45h-3.76v15.4h1.32c1.35,0,2.44-1.09,2.44-2.44v-4.05h3.37v-3.19h-3.37v-5.73h0ZM104.61,19.93c.88,0,1.7-.15,2.42-.45.73-.3,1.37-.7,1.9-1.2.53-.49.96-1.07,1.26-1.73s.45-1.35.45-2.07c0-.58-.11-1.15-.31-1.69-.17-.45-.4-.88-.68-1.28h1.83v-2.83h-4.94v-2.59h-3.88v2.59h-4.94v2.83h1.83c-.28.41-.5.84-.66,1.28-.2.53-.3,1.1-.3,1.69,0,.72.15,1.41.45,2.07.3.66.72,1.24,1.24,1.73.53.5,1.16.9,1.89,1.2.73.3,1.55.45,2.43.45M104.61,17.03c-.71,0-1.26-.24-1.68-.73-.42-.48-.63-1.1-.63-1.82s.21-1.34.63-1.83c.42-.5.97-.73,1.68-.73s1.26.24,1.69.73c.42.5.64,1.11.64,1.83s-.21,1.34-.64,1.82c-.42.49-.97.73-1.69.73M137.02,19.96c-.61-.45-1.32-.8-2.12-1.03-1.6-.46-3.39-.46-4.98,0-.79.23-1.51.59-2.12,1.04-.62.46-1.12,1.04-1.5,1.7-.37.67-.56,1.45-.56,2.33s.19,1.64.56,2.31c.38.67.88,1.23,1.5,1.68.61.45,1.34.8,2.13,1.03.8.23,1.63.35,2.47.35s1.67-.11,2.47-.35c.8-.23,1.52-.58,2.14-1.03.62-.46,1.13-1.02,1.5-1.68.38-.67.57-1.44.57-2.31s-.19-1.66-.57-2.34c-.37-.67-.88-1.25-1.49-1.7M132.42,26.42c-.86,0-1.58-.23-2.12-.68-.55-.45-.82-1.02-.82-1.74,0-.35.08-.69.22-.98.15-.29.36-.55.61-.76.26-.21.57-.38.93-.5.36-.12.75-.18,1.17-.18.86,0,1.57.23,2.1.68s.79,1.02.79,1.74-.26,1.3-.79,1.75-1.24.68-2.1.68M130.08,17.7c.77-.28,1.44-.68,1.98-1.18s.97-1.11,1.28-1.79c.31-.69.46-1.45.46-2.25s-.15-1.57-.46-2.26c-.3-.68-.74-1.29-1.28-1.79-.54-.5-1.21-.9-1.98-1.18-.77-.28-1.62-.42-2.53-.42s-1.76.14-2.54.42c-.77.28-1.43.68-1.98,1.18-.54.5-.97,1.11-1.28,1.79-.31.69-.46,1.45-.46,2.26s.16,1.57.46,2.25c.3.69.74,1.29,1.28,1.79.55.5,1.21.9,1.98,1.18.77.28,1.62.42,2.54.42s1.76-.14,2.53-.42M127.55,9.9c.8,0,1.42.25,1.85.74.43.49.65,1.11.65,1.83s-.22,1.34-.65,1.83-1.05.74-1.85.74-1.43-.25-1.85-.74c-.43-.49-.65-1.11-.65-1.83s.22-1.34.65-1.83c.42-.49,1.05-.74,1.85-.74M142.81,11.63v-2.95h-3.37v-2.23h-3.76v12.24h1.32c1.34,0,2.43-1.09,2.43-2.43v-.04h3.37v-2.95h-3.37v-1.64h3.38Z"/><path class="cls-1" d="M11.93,35.71c-6.58,0-11.93-5.35-11.93-11.93,0-4.39,2.4-8.41,6.26-10.5,1.73-.94,3.69-1.43,5.67-1.43,1.8,0,3.61.42,5.22,1.2l.33.16-.3.22c-3,2.23-4.89,5.66-5.17,9.39-.03.36-.04.67-.04.96,0,4.13,1.89,7.9,5.2,10.35l.3.22-.34.16c-1.61.78-3.42,1.2-5.22,1.2"/><path class="cls-3" d="M24.88,35.71c-2.2,0-4.35-.61-6.22-1.75-3.5-2.13-5.66-5.91-5.71-10v-.35l.32.14c1.61.7,3.39,1.07,5.15,1.07,2.14,0,4.26-.53,6.13-1.55,3.56-1.93,5.96-5.31,6.59-9.29l.06-.35.29.2c3.33,2.21,5.34,5.94,5.33,9.94,0,6.58-5.35,11.93-11.93,11.93"/><path class="cls-4" d="M24.66,21.73c-.6-3.72-2.79-6.98-6-8.95-2.02-1.24-4.35-1.89-6.72-1.89-1.76,0-3.53.37-5.15,1.07l-.32.14v-.35c.06-3.15,1.32-6.1,3.57-8.31C12.28,1.22,15.26,0,18.41,0c6.58,0,11.93,5.35,11.93,11.93,0,.27-.01.55-.04.89-.27,3.7-2.2,7.01-5.3,9.06l-.29.19-.06-.34h.01Z"/><path class="cls-2" d="M62.7,16.83c1.9-.78,2.98-2.25,2.98-4.16,0-3.92-2.51-5.74-7.79-5.74h-12.14v21.85h12.16c5.9,0,8.65-2.03,8.65-6.39,0-2.86-1.3-4.72-3.86-5.56M50.59,11.1h6.79c2.15,0,3.2.78,3.2,2.15,0,1.22-.61,2.08-3.59,2.08h-6.4v-4.23ZM57.69,24.62h-7.1v-5.12h6.9c2.63,0,3.96.9,3.96,2.71,0,1.46-1.26,2.42-3.76,2.42M80.16,15.04c-2.75-.16-5.26-.23-5.26-2.08,0-1.62,1.77-2.21,5.25-2.21,1.97,0,3.63.22,5.61.74,0,0,2.3.84,2.91-1.15.03-.1.72-2.32.74-2.42-3.1-1.09-6.54-1.62-9.36-1.62-7.33,0-10.26,3.84-10.26,6.9,0,4.87,4.1,6.39,8.78,6.68,4.5.28,7.31.07,7.31,2.44,0,1.87-2,2.54-6.48,2.54-2.08,0-4.34-.46-6.14-1.07,0,0-2.26-.9-2.91,1.07l-.79,2.42c2.83,1.45,6.57,2.13,9.74,2.13,7.7,0,11.69-2.13,11.69-7.33,0-6.12-5.64-6.74-10.83-7.05"/></g></svg>